<?xml version="1.0" encoding="UTF-8"?>
<svg version="1.1" xmlns="http://www.w3.org/2000/svg" width="500" height="500">
<path d="M0 0 C165 0 330 0 500 0 C500 165 500 330 500 500 C335 500 170 500 0 500 C0 335 0 170 0 0 Z " fill="#FEFEFE" transform="translate(0,0)"/>
<path d="M0 0 C31.68 0 63.36 0 96 0 C94 4 94 4 93 5 C95.31 3.68 97.62 2.36 100 1 C100 18.16 100 35.32 100 53 C67.33 53 34.66 53 1 53 C5.49887394 47.37640757 5.49887394 47.37640757 8.43359375 45.421875 C9.39809448 44.76989136 9.39809448 44.76989136 10.38208008 44.10473633 C11.06036865 43.65767334 11.73865723 43.21061035 12.4375 42.75 C13.8675432 41.79089472 15.29722517 40.83125066 16.7265625 39.87109375 C17.44102539 39.39397949 18.15548828 38.91686523 18.89160156 38.42529297 C20.89355355 37.07195859 22.86870059 35.68834222 24.8359375 34.28515625 C25.4244751 33.86717773 26.0130127 33.44919922 26.61938477 33.01855469 C28.2235339 31.87587311 29.82474595 30.7290716 31.42578125 29.58203125 C34 28 34 28 37 28 C35.68 27.34 34.36 26.68 33 26 C33 26.66 33 27.32 33 28 C31.50976562 29.24584961 31.50976562 29.24584961 29.40625 30.65234375 C28.63007324 31.17675049 27.85389648 31.70115723 27.05419922 32.24145508 C26.21131348 32.8011499 25.36842773 33.36084473 24.5 33.9375 C22.76279026 35.10642825 21.02581529 36.27570545 19.2890625 37.4453125 C18.40766602 38.03602539 17.52626953 38.62673828 16.61816406 39.23535156 C11.9842661 42.35860916 7.39979334 45.5538199 2.81445312 48.74780273 C-1.8898682 52 -1.8898682 52 -3 52 C-3 35.17 -3 18.34 -3 1 C-1.02 1.99 0.96 2.98 3 4 C2.01 3.34 1.02 2.68 0 2 C0 1.34 0 0.68 0 0 Z " fill="#65AAC1" transform="translate(114,223)"/>
<path d="M0 0 C0.66 0.33 1.32 0.66 2 1 C2 1.66 2 2.32 2 3 C4.32136224 4.72958264 6.6493127 6.34472459 9.0625 7.9375 C10.52734126 8.92385396 11.99084975 9.91218965 13.453125 10.90234375 C14.58137695 11.66587158 14.58137695 11.66587158 15.73242188 12.44482422 C19.30784835 14.89696318 22.81584606 17.43723231 26.3125 20 C27.25331421 20.68437134 27.25331421 20.68437134 28.21313477 21.38256836 C31.03344885 23.45581534 33.51618415 25.51618415 36 28 C3.99 28 -28.02 28 -61 28 C-56.50112606 22.37640757 -56.50112606 22.37640757 -53.56640625 20.421875 C-52.92372803 19.98705811 -52.2810498 19.55224121 -51.61889648 19.10424805 C-50.94028564 18.65734619 -50.2616748 18.21044434 -49.5625 17.75 C-48.12687402 16.79406438 -46.69198878 15.83701546 -45.2578125 14.87890625 C-44.54270508 14.40211426 -43.82759766 13.92532227 -43.09082031 13.43408203 C-41.1160063 12.07956808 -39.20651406 10.66945605 -37.3046875 9.21484375 C-36.73419678 8.7878418 -36.16370605 8.36083984 -35.57592773 7.92089844 C-34.02875388 6.75619537 -32.49628793 5.57202837 -30.96484375 4.38671875 C-28 3 -28 3 -24.328125 3.6328125 C-21 5 -21 5 -17.8125 7.1875 C-15.3010228 9.20509573 -15.3010228 9.20509573 -13.18359375 8.8671875 C-10.16543226 7.66856165 -7.84397729 5.88298297 -5.25 3.9375 C-4.26515625 3.20402344 -3.2803125 2.47054687 -2.265625 1.71484375 C-1.51796875 1.14894531 -0.7703125 0.58304688 0 0 Z " fill="#AFAD7A" transform="translate(176,248)"/>
<path d="M0 0 C0 17.16 0 34.32 0 52 C-5.61759397 49.75296241 -5.61759397 49.75296241 -8.42578125 47.56640625 C-9.05033203 47.08719727 -9.67488281 46.60798828 -10.31835938 46.11425781 C-10.97642578 45.60217773 -11.63449219 45.09009766 -12.3125 44.5625 C-20.34819947 38.41334478 -28.61701843 32.66297159 -37 27 C-35.73779767 23.213393 -34.52750573 22.79427284 -31.1875 20.6875 C-25.17215983 16.80077658 -19.29494676 12.74581417 -13.4375 8.625 C-11.70714011 7.40869928 -9.9766777 6.19254439 -8.24609375 4.9765625 C-7.50029053 4.45143066 -6.7544873 3.92629883 -5.98608398 3.38525391 C-1.13253437 0 -1.13253437 0 0 0 Z " fill="#03224E" transform="translate(214,224)"/>
<path d="M0 0 C6.68247614 4.25248481 13.252374 8.4746623 19.6875 13.0625 C20.72874023 13.79823242 20.72874023 13.79823242 21.79101562 14.54882812 C23.86836925 16.0221423 25.93524901 17.50908763 28 19 C29.13816162 19.80993408 29.13816162 19.80993408 30.29931641 20.63623047 C31.39832275 21.43311279 31.39832275 21.43311279 32.51953125 22.24609375 C33.18702393 22.72618896 33.8545166 23.20628418 34.54223633 23.70092773 C35.02329834 24.12962158 35.50436035 24.55831543 36 25 C36 25.66 36 26.32 36 27 C34.50976562 28.24584961 34.50976562 28.24584961 32.40625 29.65234375 C31.63007324 30.17675049 30.85389648 30.70115723 30.05419922 31.24145508 C29.21131348 31.8011499 28.36842773 32.36084473 27.5 32.9375 C25.76279026 34.10642825 24.02581529 35.27570545 22.2890625 36.4453125 C21.40766602 37.03602539 20.52626953 37.62673828 19.61816406 38.23535156 C14.9842661 41.35860916 10.39979334 44.5538199 5.81445312 47.74780273 C1.1101318 51 1.1101318 51 0 51 C0 34.17 0 17.34 0 0 Z " fill="#03214F" transform="translate(111,224)"/>
<path d="M0 0 C2.84625 -0.061875 5.6925 -0.12375 8.625 -0.1875 C9.51010254 -0.21481201 10.39520508 -0.24212402 11.30712891 -0.27026367 C17.16930717 -0.33161665 21.31452576 0.67258899 25.875 4.625 C27.64346147 8.35841865 27.68431704 11.95172448 27 16 C25 19.0625 25 19.0625 23 21 C24.44950455 24.7910119 26.15172566 28.3874638 28 32 C25.03 32 22.06 32 19 32 C15 25.25 15 25.25 15 23 C12.69 23 10.38 23 8 23 C8 25.97 8 28.94 8 32 C5.36 32 2.72 32 0 32 C0 21.44 0 10.88 0 0 Z " fill="#060606" transform="translate(376,236)"/>
<path d="M0 0 C2.97 0 5.94 0 9 0 C10.85366031 4.39561715 12.70501336 8.79219589 14.55419922 13.18969727 C15.18409312 14.68671149 15.81462578 16.18345711 16.44580078 17.67993164 C17.35095092 19.82628844 18.25382772 21.97358888 19.15625 24.12109375 C19.44060913 24.79401962 19.72496826 25.4669455 20.01794434 26.16026306 C22 30.88612829 22 30.88612829 22 32 C19.03 32 16.06 32 13 32 C12.34 30.35 11.68 28.7 11 27 C4.07 26.505 4.07 26.505 -3 26 C-3.66 27.98 -4.32 29.96 -5 32 C-7.64 32 -10.28 32 -13 32 C-10.72578162 24.75423446 -7.88273904 17.87948128 -4.8125 10.9375 C-4.34908203 9.88111328 -3.88566406 8.82472656 -3.40820312 7.73632812 C-2.2756523 5.15598036 -1.13952397 2.57727399 0 0 Z " fill="#080808" transform="translate(294,236)"/>
<path d="M0 0 C2.64 0 5.28 0 8 0 C8.33 3.96 8.66 7.92 9 12 C9.68964844 11.13375 10.37929688 10.2675 11.08984375 9.375 C18.52394195 0.43016549 18.52394195 0.43016549 22.734375 -0.796875 C25.1875 -0.75 25.1875 -0.75 29 0 C23.50431034 7.54741379 23.50431034 7.54741379 20.5625 10.1875 C18.7254208 11.88878832 18.7254208 11.88878832 19.15625 14.265625 C20.19093223 17.61876186 21.80145061 19.78524953 23.9375 22.5625 C26.27722959 25.62410623 28.41697527 28.47756277 30 32 C26.48810455 32.63595692 23.48671481 32.85017139 20 32 C16.96436502 29.05506061 14.87233889 25.78187657 13 22 C13 21.34 13 20.68 13 20 C10.87856267 20.8955794 10.87856267 20.8955794 9 23 C8.33825175 25.9858081 8.12794052 28.94861869 8 32 C5.36 32 2.72 32 0 32 C0 21.44 0 10.88 0 0 Z " fill="#080808" transform="translate(246,236)"/>
<path d="M0 0 C1.87982261 0.71164713 3.72572181 1.51177914 5.5625 2.328125 C4.9025 4.308125 4.2425 6.288125 3.5625 8.328125 C2.325 8.1115625 2.325 8.1115625 1.0625 7.890625 C-2.76436278 7.27559348 -6.58966707 6.79251863 -10.4375 6.328125 C-10.4375 7.648125 -10.4375 8.968125 -10.4375 10.328125 C-9.70144531 10.48667969 -8.96539062 10.64523438 -8.20703125 10.80859375 C2.25518327 13.31012721 2.25518327 13.31012721 5.5625 18.328125 C6.1875 21.828125 6.1875 21.828125 5.5625 25.328125 C3.02112841 28.48766805 1.41627341 30.04353386 -2.4375 31.328125 C-9.94369913 32.06783121 -14.98321852 31.22504967 -21.4375 27.328125 C-20.7775 25.348125 -20.1175 23.368125 -19.4375 21.328125 C-16.4375 21.328125 -16.4375 21.328125 -13.625 22.828125 C-10.23236742 24.42465798 -8.13148275 24.59198091 -4.4375 24.328125 C-4.4375 23.008125 -4.4375 21.688125 -4.4375 20.328125 C-5.18515625 20.09738281 -5.9328125 19.86664063 -6.703125 19.62890625 C-14.6984486 16.98124019 -14.6984486 16.98124019 -18.125 13.953125 C-19.76111188 10.68090124 -20.11433068 8.93788862 -19.4375 5.328125 C-13.96031137 -1.15801944 -8.16034382 -2.24932554 0 0 Z " fill="#090909" transform="translate(342.4375,236.671875)"/>
<path d="M0 0 C2.64 0 5.28 0 8 0 C8 10.56 8 21.12 8 32 C5.36 32 2.72 32 0 32 C0 21.44 0 10.88 0 0 Z " fill="#070707" transform="translate(357,236)"/>
<path d="M0 0 C0.33 0 0.66 0 1 0 C1.33 16.5 1.66 33 2 50 C15.86242638 40.47474024 15.86242638 40.47474024 29.5625 30.72851562 C30.25085938 30.23673828 30.93921875 29.74496094 31.6484375 29.23828125 C32.24833496 28.80555908 32.84823242 28.37283691 33.46630859 27.92700195 C35 27 35 27 37 27 C36.34 25.68 35.68 24.36 35 23 C38.65316671 24.24976756 39.78065836 24.67098753 42 28 C41.15566406 28.061875 40.31132812 28.12375 39.44140625 28.1875 C35.05015526 29.22425392 32.44245276 31.25501337 28.9375 34 C27.62101266 35.00030688 26.30327924 35.99897571 24.984375 36.99609375 C24.32373047 37.49866699 23.66308594 38.00124023 22.98242188 38.51904297 C18.9194236 41.55428281 14.70429915 44.37087647 10.51171875 47.22265625 C7.97781623 48.90967411 7.97781623 48.90967411 6 51 C54.51 51.495 54.51 51.495 104 52 C104 52.33 104 52.66 104 53 C90.58774207 53.0231207 77.17548883 53.04091369 63.76321507 53.05181217 C57.53606528 53.0570416 51.30892908 53.06414033 45.08178711 53.07543945 C39.07773135 53.08626621 33.07368871 53.09227638 27.06962395 53.09487724 C24.7733839 53.09673188 22.47714461 53.10035321 20.18091011 53.10573006 C16.97679186 53.11293768 13.7727285 53.11399106 10.56860352 53.11352539 C9.12930733 53.1189183 9.12930733 53.1189183 7.66093445 53.12442017 C6.79290192 53.1230455 5.92486938 53.12167084 5.03053284 53.12025452 C3.8925794 53.12163721 3.8925794 53.12163721 2.731637 53.12304783 C1 53 1 53 0 52 C-0.09340434 50.37325222 -0.11745171 48.74245949 -0.11352539 47.11303711 C-0.11344986 46.07203354 -0.11337433 45.03102997 -0.11329651 43.95848083 C-0.10813522 42.8262056 -0.10297394 41.69393036 -0.09765625 40.52734375 C-0.0962413 39.37456436 -0.09482635 38.22178497 -0.09336853 37.03407288 C-0.08775005 33.33518936 -0.07519442 29.63636536 -0.0625 25.9375 C-0.05748738 23.43684983 -0.05292406 20.93619871 -0.04882812 18.43554688 C-0.03777462 12.29034412 -0.02101852 6.14517631 0 0 Z " fill="#DADCDC" transform="translate(110,224)"/>
<path d="M0 0 C7.71484375 -0.09765625 7.71484375 -0.09765625 10 0 C11 1 11 1 11.25 4.4375 C11.1675 5.613125 11.085 6.78875 11 8 C7.91111478 10.05925681 7.29064073 10.2390374 3.8125 10.125 C1.9253125 10.063125 1.9253125 10.063125 0 10 C0 6.7 0 3.4 0 0 Z " fill="#F6F6F6" transform="translate(384,243)"/>
<path d="M0 0 C0.66 0 1.32 0 2 0 C2.50615298 1.26839526 3.00469099 2.53983102 3.5 3.8125 C3.91765625 4.87404297 3.91765625 4.87404297 4.34375 5.95703125 C5 8 5 8 5 11 C2.36 11 -0.28 11 -3 11 C-2.32829194 7.1936543 -1.27253436 3.64793184 0 0 Z " fill="#EBEBEB" transform="translate(297,245)"/>
<path d="M0 0 C0.66 0.66 1.32 1.32 2 2 C-0.97 4.475 -0.97 4.475 -4 7 C-4.66 6.67 -5.32 6.34 -6 6 C-4 4 -2 2 0 0 Z " fill="#D3CDB6" transform="translate(119,269)"/>
</svg>
